<?xml version="1.0" standalone="no"?>
<!DOCTYPE svg PUBLIC "-//W3C//DTD SVG 20010904//EN"
 "http://www.w3.org/TR/2001/REC-SVG-20010904/DTD/svg10.dtd">
<svg version="1.0" xmlns="http://www.w3.org/2000/svg"
 width="256.000000pt" height="256.000000pt" viewBox="0 0 256.000000 256.000000"
 preserveAspectRatio="xMidYMid meet">

<g transform="translate(0.000000,256.000000) scale(0.100000,-0.100000)"
fill="#000000" stroke="none">
<path d="M290 1740 l0 -660 80 0 80 0 0 550 c0 303 4 550 8 550 8 0 34 -73
268 -758 l117 -343 76 3 75 3 53 150 c50 143 100 288 254 739 38 109 71 201
74 204 3 3 5 -222 5 -499 0 -277 3 -568 7 -647 l6 -142 83 0 84 0 2 268 3 267
250 6 c311 7 378 23 459 104 115 114 148 309 78 458 -37 80 -69 117 -130 150
-88 48 -156 58 -424 64 l-247 6 -3 91 -3 91 -115 0 -115 0 -87 -255 c-47 -140
-133 -393 -190 -562 -56 -169 -106 -308 -109 -308 -6 0 -126 351 -312 912
l-72 218 -127 0 -128 0 0 -660z m1807 286 c89 -42 134 -142 114 -252 -14 -73
-34 -109 -82 -143 -58 -43 -115 -51 -354 -51 l-215 0 0 235 0 235 243 0 c235
0 244 -1 294 -24z"/>
<path d="M687 833 c-12 -11 -8 -501 3 -508 6 -4 17 -1 25 5 12 10 15 54 15
249 0 171 -3 240 -12 249 -14 14 -22 15 -31 5z"/>
<path d="M1267 834 c-4 -4 -7 -119 -7 -255 0 -197 3 -248 13 -252 35 -13 37 5
35 259 -3 215 -5 249 -18 252 -9 1 -19 0 -23 -4z"/>
<path d="M1852 828 c-9 -9 -12 -77 -12 -249 0 -201 2 -238 15 -249 10 -9 19
-10 26 -3 13 13 7 505 -6 510 -6 2 -16 -2 -23 -9z"/>
<path d="M845 737 c-3 -7 -4 -129 -3 -272 3 -252 4 -260 23 -260 19 0 20 8 23
273 2 268 2 272 -18 272 -11 0 -23 -6 -25 -13z"/>
<path d="M1432 478 c3 -265 4 -273 23 -273 20 0 20 7 20 270 l0 270 -23 3 -22
3 2 -273z"/>
<path d="M2015 737 c-3 -7 -4 -129 -3 -272 3 -252 4 -260 23 -260 19 0 20 8
23 273 2 268 2 272 -18 272 -11 0 -23 -6 -25 -13z"/>
<path d="M595 698 c-3 -7 -4 -117 -3 -243 3 -222 4 -230 23 -230 19 0 20 7 20
240 0 221 -1 240 -18 243 -9 2 -19 -3 -22 -10z"/>
<path d="M1180 465 c0 -238 1 -245 20 -245 19 0 20 7 20 245 0 238 -1 245 -20
245 -19 0 -20 -7 -20 -245z"/>
<path d="M1765 698 c-3 -7 -4 -117 -3 -243 3 -222 4 -230 23 -230 19 0 20 7
20 240 0 221 -1 240 -18 243 -9 2 -19 -3 -22 -10z"/>
<path d="M767 614 c-12 -12 -8 -492 3 -499 6 -4 18 -1 26 6 22 18 16 492 -6
497 -9 1 -19 0 -23 -4z"/>
<path d="M1352 368 c3 -217 5 -253 18 -253 13 0 15 34 15 250 0 231 -1 250
-18 253 -16 3 -17 -12 -15 -250z"/>
<path d="M1937 613 c-12 -11 -8 -491 3 -498 6 -4 17 -1 25 5 12 10 15 53 15
240 0 126 -3 235 -6 244 -6 16 -26 21 -37 9z"/>
<path d="M437 594 c-4 -4 -7 -61 -7 -126 0 -112 1 -118 20 -118 20 0 20 5 18
122 -3 113 -10 142 -31 122z"/>
<path d="M1021 591 c-8 -5 -11 -41 -9 -122 3 -106 4 -114 23 -114 19 0 20 8
23 116 2 92 0 118 -11 122 -8 3 -19 2 -26 -2z"/>
<path d="M1607 594 c-4 -4 -7 -61 -7 -126 0 -112 1 -118 20 -118 20 0 20 5 18
122 -3 113 -10 142 -31 122z"/>
<path d="M932 493 c2 -70 6 -88 18 -88 12 0 16 18 18 88 3 82 2 87 -18 87 -20
0 -21 -5 -18 -87z"/>
<path d="M1515 567 c-3 -7 -5 -47 -3 -88 3 -66 5 -74 23 -74 18 0 20 7 20 85
0 73 -2 85 -18 88 -9 2 -20 -3 -22 -11z"/>
<path d="M2102 493 c2 -70 6 -88 18 -88 12 0 15 16 15 85 0 73 -2 85 -18 88
-16 3 -18 -4 -15 -85z"/>
<path d="M514 547 c-3 -8 -4 -43 -2 -78 3 -56 5 -64 23 -64 18 0 20 7 20 75 0
63 -3 75 -18 78 -9 2 -20 -3 -23 -11z"/>
<path d="M1094 547 c-3 -8 -4 -43 -2 -78 3 -56 5 -64 23 -64 18 0 20 7 20 75
0 63 -3 75 -18 78 -9 2 -20 -3 -23 -11z"/>
<path d="M1687 553 c-4 -3 -7 -37 -7 -75 0 -54 3 -70 16 -75 9 -3 20 0 25 8
10 16 12 109 3 133 -6 16 -26 21 -37 9z"/>
</g>
</svg>
